<svg xmlns="http://www.w3.org/2000/svg">
    <symbol id="arrow-left">
        <path fill="#FFF" d="M8 0 0 8l8 8 1.687-1.687-5.121-5.12h10.241V6.807H4.566l5.121-5.12z"/>
    </symbol>

    <symbol id="css-icon">
        <g id="SVGRepo_bgCarrier" stroke-width="0"></g>
        <g id="SVGRepo_tracerCarrier" stroke-linecap="round" stroke-linejoin="round"></g>
        <g id="SVGRepo_iconCarrier">
            <g id="c133de6af664cd4f011a55de6b001b19">
                <path display="inline"
                    d="M483.111,0.501l-42.59,461.314l-184.524,49.684L71.47,461.815L28.889,0.501H483.111z M397.29,94.302 H255.831H111.866l6.885,55.708h137.08h7.7l-7.7,3.205l-132.07,55.006l4.38,54.453l127.69,0.414l68.438,0.217l-4.381,72.606 l-64.058,18.035v-0.057l-0.525,0.146l-61.864-15.617l-3.754-45.07h-0.205H132.1h-0.202l7.511,87.007l116.423,34.429v-0.062 l0.21,0.062l115.799-33.802l15.021-172.761h-131.03h-0.323l0.323-0.14l135.83-58.071L397.29,94.302z">
                </path>
            </g>
        </g>
    </symbol>

    <symbol id="figma-icon">
        <g id="SVGRepo_bgCarrier" stroke-width="0"></g>
        <g id="SVGRepo_tracerCarrier" stroke-linecap="round" stroke-linejoin="round"></g>
        <g id="SVGRepo_iconCarrier">
            <path
                d="M12 3H9C7.34315 3 6 4.34315 6 6C6 7.65685 7.34315 9 9 9M12 3V9M12 3H15C16.6569 3 18 4.34315 18 6C18 7.65685 16.6569 9 15 9M12 9H9M12 9H15M12 9V15M9 9C7.34315 9 6 10.3431 6 12C6 13.6569 7.34315 15 9 15M15 9C16.6569 9 18 10.3431 18 12C18 13.6569 16.6569 15 15 15C13.3431 15 12 13.6569 12 12C12 10.3431 13.3431 9 15 9ZM12 15H9M12 15V18C12 19.6569 10.6569 21 9 21C7.34315 21 6 19.6569 6 18C6 16.3431 7.34315 15 9 15"
                fill="#fff" stroke-width="2" stroke-linecap="round" stroke-linejoin="round"></path>
        </g>
    </symbol>

    <symbol id="git-icon">
        <g id="SVGRepo_bgCarrier" stroke-width="0"></g>
        <g id="SVGRepo_tracerCarrier" stroke-linecap="round" stroke-linejoin="round"></g>
        <g id="SVGRepo_iconCarrier">
            <path clip-rule="evenodd"
                d="M13.4142 3.82843C12.6332 3.04738 11.3668 3.04738 10.5858 3.82843L9.91421 4.5L11.482 6.06774C11.6472 6.02356 11.8208 6 12 6C13.1046 6 14 6.89543 14 8C14 8.17916 13.9764 8.35282 13.9323 8.51804L15.982 10.5677C16.1472 10.5236 16.3208 10.5 16.5 10.5C17.6046 10.5 18.5 11.3954 18.5 12.5C18.5 13.6046 17.6046 14.5 16.5 14.5C15.3954 14.5 14.5 13.6046 14.5 12.5C14.5 12.3208 14.5236 12.1472 14.5677 11.982L13 10.4142V15.2676C13.5978 15.6134 14 16.2597 14 17C14 18.1046 13.1046 19 12 19C10.8954 19 10 18.1046 10 17C10 16.2597 10.4022 15.6134 11 15.2676V9.73244C10.4022 9.38663 10 8.74028 10 8C10 7.82084 10.0236 7.64718 10.0677 7.48196L8.5 5.91421L3.82843 10.5858C3.04738 11.3668 3.04738 12.6332 3.82843 13.4142L10.5858 20.1716C11.3668 20.9526 12.6332 20.9526 13.4142 20.1716L20.1716 13.4142C20.9526 12.6332 20.9526 11.3668 20.1716 10.5858L13.4142 3.82843ZM9.17157 2.41421C10.7337 0.852115 13.2663 0.852119 14.8284 2.41422L21.5858 9.17157C23.1479 10.7337 23.1479 13.2663 21.5858 14.8284L14.8284 21.5858C13.2663 23.1479 10.7337 23.1479 9.17157 21.5858L2.41421 14.8284C0.852115 13.2663 0.852119 10.7337 2.41422 9.17157L9.17157 2.41421Z"
            ></path>
        </g>
    </symbol>

    <symbol id="github-icon">
        <g id="SVGRepo_bgCarrier" stroke-width="0"></g>
        <g id="SVGRepo_tracerCarrier" stroke-linecap="round" stroke-linejoin="round"></g>
        <g id="SVGRepo_iconCarrier">
            <g stroke="none" stroke-width="1">
                <g id="Dribbble-Light-Preview" transform="translate(-140.000000, -7559.000000)">
                    <g id="icons" transform="translate(56.000000, 160.000000)">
                        <path
                            d="M94,7399 C99.523,7399 104,7403.59 104,7409.253 C104,7413.782 101.138,7417.624 97.167,7418.981 C96.66,7419.082 96.48,7418.762 96.48,7418.489 C96.48,7418.151 96.492,7417.047 96.492,7415.675 C96.492,7414.719 96.172,7414.095 95.813,7413.777 C98.04,7413.523 100.38,7412.656 100.38,7408.718 C100.38,7407.598 99.992,7406.684 99.35,7405.966 C99.454,7405.707 99.797,7404.664 99.252,7403.252 C99.252,7403.252 98.414,7402.977 96.505,7404.303 C95.706,7404.076 94.85,7403.962 94,7403.958 C93.15,7403.962 92.295,7404.076 91.497,7404.303 C89.586,7402.977 88.746,7403.252 88.746,7403.252 C88.203,7404.664 88.546,7405.707 88.649,7405.966 C88.01,7406.684 87.619,7407.598 87.619,7408.718 C87.619,7412.646 89.954,7413.526 92.175,7413.785 C91.889,7414.041 91.63,7414.493 91.54,7415.156 C90.97,7415.418 89.522,7415.871 88.63,7414.304 C88.63,7414.304 88.101,7413.319 87.097,7413.247 C87.097,7413.247 86.122,7413.234 87.029,7413.87 C87.029,7413.87 87.684,7414.185 88.139,7415.37 C88.139,7415.37 88.726,7417.2 91.508,7416.58 C91.513,7417.437 91.522,7418.245 91.522,7418.489 C91.522,7418.76 91.338,7419.077 90.839,7418.982 C86.865,7417.627 84,7413.783 84,7409.253 C84,7403.59 88.478,7399 94,7399"
                        ></path>
                    </g>
                </g>
            </g>
        </g>
    </symbol>

    <symbol id="html-icon">
        <g id="SVGRepo_bgCarrier" stroke-width="0"></g>
        <g id="SVGRepo_tracerCarrier" stroke-linecap="round" stroke-linejoin="round"></g>
        <g id="SVGRepo_iconCarrier">
            <g id="Page-1" stroke="none" stroke-width="1">
                <g id="Dribbble-Light-Preview" transform="translate(-61.000000, -7639.000000)">
                    <g id="icons" transform="translate(56.000000, 160.000000)">
                        <path
                            d="M19.4350881,7485 L19.4279481,7485 L10.8119794,7485 L11.0180201,7487 L19.2300674,7487 C19.109707,7488.752 18.7455658,7492.464 18.6119454,7494.153 L13.99949,7495.451 L13.99949,7495.455 L13.98929,7495.46 L9.37377458,7493.836 L9.05757353,7490 L11.3199411,7490 L11.4800816,7492.063 L13.99337,7493 L13.99949,7493 L16.5086984,7492.1 L16.7667592,7489 L8.95659319,7489 C8.91885306,7488.599 8.43333144,7483.392 8.34867116,7483 L19.6370488,7483 C19.5738086,7483.66 19.5095484,7484.338 19.4350881,7485 L19.4350881,7485 Z M5,7479 L6.63812546,7497.148 L13.98929,7499 L21.3598345,7497.111 L23,7479 L5,7479 Z"
                        ></path>
                    </g>
                </g>
            </g>
        </g>
    </symbol>

    <symbol id="js-icon">
        <g id="SVGRepo_bgCarrier" stroke-width="0"></g>
        <g id="SVGRepo_tracerCarrier" stroke-linecap="round" stroke-linejoin="round"></g>
        <g id="SVGRepo_iconCarrier">
            <g id="5151e0c8492e5103c096af88a51e75c7">
                <path display="inline" fill-rule="evenodd" clip-rule="evenodd"
                    d="M1.008,0.5C0.438,0.583,0.48,1.27,0.521,1.958 c0,169.668,0,339.31,0,508.974c169.364,1.135,340.808,0.162,510.979,0.486c0-170.309,0-340.61,0-510.918 C341.342,0.5,171.167,0.5,1.008,0.5z M259.893,452.167c-11.822,11.919-30.478,18.938-53.429,18.938 c-37.643,0-58.543-18.34-71.884-43.711c12.842-8.2,25.966-16.122,39.344-23.795c5.456,15.262,23.886,32.42,44.683,21.857 c13.183-6.699,11.661-27.01,11.661-49.054c0-45.773,0-98.578,0-139.872c-0.042-0.688-0.083-1.375,0.482-1.458 c15.707,0,31.413,0,47.116,0c0,36.788,0,78.402,0,117.529C277.866,395.199,280.91,430.988,259.893,452.167z M470.696,409.917 c-2.674,39.884-35.243,61.063-79.17,61.188c-43.062,0.124-70.624-19.013-87.433-48.567c12.085-8.317,25.778-15.017,38.375-22.822 c10.08,15.761,27.537,30.91,53.429,28.652c16.131-1.406,34.856-14.555,24.285-34.482c-5.127-9.66-17.516-14.567-28.656-19.425 c-35.352-15.424-76.828-29.571-72.861-84.992c1.327-18.514,9.852-31.525,20.889-40.796c11.311-9.5,26.46-15.867,46.629-16.511 c36.629-1.173,56.723,15.12,70.429,37.884c-11.664,8.891-24.514,16.608-37.401,24.281c-4.229-12.995-24.644-25.658-41.772-17.969 c-7.789,3.493-14.788,13.761-10.684,26.224c3.66,11.115,18.589,17.199,30.599,22.344 C433.706,340.486,474.331,355.693,470.696,409.917z">
                </path>
            </g>
        </g>
    </symbol>

    <symbol id="mysql-icon">
        <g id="SVGRepo_bgCarrier" stroke-width="0"></g>
        <g id="SVGRepo_tracerCarrier" stroke-linecap="round" stroke-linejoin="round"></g>
        <g id="SVGRepo_iconCarrier">
            <path
                d="m24.129 23.412-.508-.484c-.251-.331-.518-.624-.809-.891l-.005-.004q-.448-.407-.931-.774-.387-.266-1.064-.641c-.371-.167-.661-.46-.818-.824l-.004-.01-.048-.024c.212-.021.406-.06.592-.115l-.023.006.57-.157c.236-.074.509-.122.792-.133h.006c.298-.012.579-.06.847-.139l-.025.006q.194-.048.399-.109t.351-.109v-.169q-.145-.217-.351-.496c-.131-.178-.278-.333-.443-.468l-.005-.004q-.629-.556-1.303-1.076c-.396-.309-.845-.624-1.311-.916l-.068-.04c-.246-.162-.528-.312-.825-.435l-.034-.012q-.448-.182-.883-.399c-.097-.048-.21-.09-.327-.119l-.011-.002c-.117-.024-.217-.084-.29-.169l-.001-.001c-.138-.182-.259-.389-.355-.609l-.008-.02q-.145-.339-.314-.651-.363-.702-.702-1.427t-.651-1.452q-.217-.484-.399-.967c-.134-.354-.285-.657-.461-.942l.013.023c-.432-.736-.863-1.364-1.331-1.961l.028.038c-.463-.584-.943-1.106-1.459-1.59l-.008-.007c-.509-.478-1.057-.934-1.632-1.356l-.049-.035q-.896-.651-1.96-1.282c-.285-.168-.616-.305-.965-.393l-.026-.006-1.113-.278-.629-.048q-.314-.024-.629-.024c-.148-.078-.275-.171-.387-.279-.11-.105-.229-.204-.353-.295l-.01-.007c-.605-.353-1.308-.676-2.043-.93l-.085-.026c-.193-.113-.425-.179-.672-.179-.176 0-.345.034-.499.095l.009-.003c-.38.151-.67.458-.795.84l-.003.01c-.073.172-.115.371-.115.581 0 .368.13.705.347.968l-.002-.003q.544.725.834 1.14.217.291.448.605c.141.188.266.403.367.63l.008.021c.056.119.105.261.141.407l.003.016q.048.206.121.448.217.556.411 1.14c.141.425.297.785.478 1.128l-.019-.04q.145.266.291.52t.314.496c.065.098.147.179.241.242l.003.002c.099.072.164.185.169.313v.001c-.114.168-.191.369-.217.586l-.001.006c-.035.253-.085.478-.153.695l.008-.03c-.223.666-.351 1.434-.351 2.231 0 .258.013.512.04.763l-.003-.031c.06.958.349 1.838.812 2.6l-.014-.025c.197.295.408.552.641.787.168.188.412.306.684.306.152 0 .296-.037.422-.103l-.005.002c.35-.126.599-.446.617-.827v-.002c.048-.474.12-.898.219-1.312l-.013.067c.024-.063.038-.135.038-.211 0-.015-.001-.03-.002-.045v.002q-.012-.109.133-.206v.048q.145.339.302.677t.326.677c.295.449.608.841.952 1.202l-.003-.003c.345.372.721.706 1.127 1.001l.022.015c.212.162.398.337.566.528l.004.004c.158.186.347.339.56.454l.01.005v-.024h.048c-.039-.087-.102-.157-.18-.205l-.002-.001c-.079-.044-.147-.088-.211-.136l.005.003q-.217-.217-.448-.484t-.423-.508q-.508-.702-.969-1.467t-.871-1.555q-.194-.387-.375-.798t-.351-.798c-.049-.099-.083-.213-.096-.334v-.005c-.006-.115-.072-.214-.168-.265l-.002-.001c-.121.206-.255.384-.408.545l.001-.001c-.159.167-.289.364-.382.58l-.005.013c-.141.342-.244.739-.289 1.154l-.002.019q-.072.641-.145 1.318l-.048.024-.024.024c-.26-.053-.474-.219-.59-.443l-.002-.005q-.182-.351-.326-.69c-.248-.637-.402-1.374-.423-2.144v-.009c-.009-.122-.013-.265-.013-.408 0-.666.105-1.308.299-1.91l-.012.044q.072-.266.314-.896t.097-.871c-.05-.165-.143-.304-.265-.41l-.001-.001c-.122-.106-.233-.217-.335-.335l-.003-.004q-.169-.244-.326-.52t-.278-.544c-.165-.382-.334-.861-.474-1.353l-.022-.089c-.159-.565-.336-1.043-.546-1.503l.026.064c-.111-.252-.24-.47-.39-.669l.006.008q-.244-.326-.436-.617-.244-.314-.484-.605c-.163-.197-.308-.419-.426-.657l-.009-.02c-.048-.097-.09-.21-.119-.327l-.002-.011c-.011-.035-.017-.076-.017-.117 0-.082.024-.159.066-.223l-.001.002c.011-.056.037-.105.073-.145.039-.035.089-.061.143-.072h.002c.085-.055.188-.088.3-.088.084 0 .165.019.236.053l-.003-.001c.219.062.396.124.569.195l-.036-.013q.459.194.847.375c.298.142.552.292.792.459l-.018-.012q.194.121.387.266t.411.291h.339q.387 0 .822.037c.293.023.564.078.822.164l-.024-.007c.481.143.894.312 1.286.515l-.041-.019q.593.302 1.125.641c.589.367 1.098.743 1.577 1.154l-.017-.014c.5.428.954.867 1.38 1.331l.01.012c.416.454.813.947 1.176 1.464l.031.047c.334.472.671 1.018.974 1.584l.042.085c.081.154.163.343.234.536l.011.033q.097.278.217.57.266.605.57 1.221t.57 1.198l.532 1.161c.187.406.396.756.639 1.079l-.011-.015c.203.217.474.369.778.422l.008.001c.368.092.678.196.978.319l-.047-.017c.143.065.327.134.516.195l.04.011c.212.065.396.151.565.259l-.009-.005c.327.183.604.363.868.559l-.021-.015q.411.302.822.57.194.145.651.423t.484.52c-.114-.004-.249-.007-.384-.007-.492 0-.976.032-1.45.094l.056-.006c-.536.072-1.022.203-1.479.39l.04-.014c-.113.049-.248.094-.388.129l-.019.004c-.142.021-.252.135-.266.277v.001c.061.076.11.164.143.26l.002.006c.034.102.075.19.125.272l-.003-.006c.119.211.247.393.391.561l-.004-.005c.141.174.3.325.476.454l.007.005q.244.194.508.399c.161.126.343.25.532.362l.024.013c.284.174.614.34.958.479l.046.016c.374.15.695.324.993.531l-.016-.011q.291.169.58.375t.556.399c.073.072.137.152.191.239l.003.005c.091.104.217.175.36.193h.003v-.048c-.088-.067-.153-.16-.184-.267l-.001-.004c-.025-.102-.062-.191-.112-.273l.002.004zm-18.576-19.205q-.194 0-.363.012c-.115.008-.222.029-.323.063l.009-.003v.024h.048q.097.145.244.326t.266.351l.387.798.048-.024c.113-.082.2-.192.252-.321l.002-.005c.052-.139.082-.301.082-.469 0-.018 0-.036-.001-.054v.003c-.045-.044-.082-.096-.108-.154l-.001-.003-.081-.182c-.053-.084-.127-.15-.214-.192l-.003-.001c-.094-.045-.174-.102-.244-.169z">
            </path>
        </g>
    </symbol>

    <symbol id="node-icon">
        <g id="SVGRepo_bgCarrier" stroke-width="0"></g>
        <g id="SVGRepo_tracerCarrier" stroke-linecap="round" stroke-linejoin="round"></g>
        <g id="SVGRepo_iconCarrier">
            <g id="Layer_2" data-name="Layer 2">
                <g id="invisible_box" data-name="invisible box">
                    <rect width="48" height="48" fill="none"></rect>
                </g>
                <g id="Q3_icons" data-name="Q3 icons">
                    <g>
                        <path
                            d="M42.3,11.8,25.7,2.4a4,4,0,0,0-3.4,0L5.7,11.8A3.4,3.4,0,0,0,4,14.7V33.3a3.4,3.4,0,0,0,1.7,2.9l4.4,2.5a7.2,7.2,0,0,0,3.8,1c3.1,0,4.9-1.9,4.9-5.1V16.3a.5.5,0,0,0-.5-.5H16.2a.5.5,0,0,0-.5.5V34.6c0,1.5-1.5,2.9-3.9,1.7L7.2,33.7a.5.5,0,0,1-.2-.4V14.7a.8.8,0,0,1,.2-.5L23.7,4.9h.6l16.5,9.3a.8.8,0,0,1,.2.5V33.3a.5.5,0,0,1-.2.4L24.3,43a.6.6,0,0,1-.6,0l-4.2-2.4a.3.3,0,0,0-.4,0l-2.5,1.1c-.3.1-.7.2.1.7l5.6,3.1a3.1,3.1,0,0,0,3.4,0l16.6-9.3A3.4,3.4,0,0,0,44,33.3V14.7A3.4,3.4,0,0,0,42.3,11.8Z">
                        </path>
                        <path
                            d="M29.1,30.3c-4.4,0-5.3-1-5.7-3.1a.4.4,0,0,0-.4-.4H20.8a.4.4,0,0,0-.4.4c0,2.7,1.5,6,8.7,6,5.2,0,8.2-2,8.2-5.5s-2.4-4.5-7.5-5.1-5.6-1-5.6-2.2.4-2.2,4.2-2.2,4.7.7,5.2,2.9a.5.5,0,0,0,.5.4h2.1l.4-.2a.4.4,0,0,0,.1-.3c-.3-3.9-3-5.7-8.3-5.7s-7.5,2-7.5,5.2,2.8,4.5,7.3,5,5.9,1.2,5.9,2.3S32.6,30.3,29.1,30.3Z">
                        </path>
                    </g>
                </g>
            </g>
        </g>
    </symbol>

    <symbol id="sass-icon">
        <g id="SVGRepo_bgCarrier" stroke-width="0"></g>
        <g id="SVGRepo_tracerCarrier" stroke-linecap="round" stroke-linejoin="round"></g>
        <g id="SVGRepo_iconCarrier">
            <path
                d="m27.533 13.796c.039-.001.085-.002.132-.002.834 0 1.623.194 2.323.54l-.031-.014c.638.311 1.162.771 1.541 1.335l.009.014c.299.436.477.975.477 1.555 0 .042-.001.084-.003.125v-.006c-.031.579-.294 1.09-.698 1.448l-.002.002c-.221.217-.488.387-.785.495l-.015.005q-.25.05-.275-.075t.225-.275c.452-.274.779-.716.898-1.237l.003-.013c.003-.042.005-.091.005-.141 0-.311-.074-.605-.205-.865l.005.011c-.217-.453-.541-.825-.94-1.094l-.01-.006c-.597-.384-1.313-.636-2.083-.699l-.016-.001c-.262-.039-.564-.061-.872-.061-.801 0-1.566.151-2.27.426l.042-.015c.145.339.236.732.249 1.144v.005c-.016.845-.47 1.58-1.145 1.99l-.011.006c-.31.22-.664.413-1.041.563l-.035.012c-.229.112-.498.177-.782.177-.033 0-.065-.001-.097-.003h.005q-.949-.199-.45-1.65c.145-.421.348-.786.605-1.107l-.006.007c.329-.43.69-.807 1.089-1.141l.011-.009-.098-.146c-.183-.312-.351-.675-.486-1.054l-.014-.046q-.15-.5-.25-.949l-.05-.35-.5.949q-.65 1.2-1.25 2.099l-.15.25c.168.408.292.881.348 1.375l.002.025c.004.047.006.103.006.159 0 .758-.374 1.428-.948 1.837l-.007.005c-.274.169-.601.344-.94.5l-.06.025c-.353.153-.762.253-1.191.275h-.009c-.033.002-.072.004-.111.004-.25 0-.487-.057-.699-.158l.01.004c-.127-.109-.207-.269-.207-.448 0-.091.021-.178.058-.255l-.002.004c.4-.561.794-1.049 1.213-1.515l-.013.015 1.1-1.399-.199-.45c-.16-.294-.313-.641-.436-1.001l-.014-.048q-.15-.5-.25-.949l-.05-.35-.5 1.2q-.599 1.399-1.1 2.399-.747 1.5-1.25 2.3l-.1.15q-.599.949-1.15.949t-.747-.7c-.096-.344-.152-.739-.152-1.147 0-.036 0-.072.001-.108v.005l.1-.7v.05q-.4.949-.8 1.749c-.177.346-.359.641-.563.919l.013-.019c-.206.216-.496.35-.817.35-.003 0-.005 0-.008 0-.021.002-.045.002-.069.002-.253 0-.483-.096-.657-.253l.001.001c-.349-.358-.608-.805-.742-1.304l-.005-.021c-.164-.455-.258-.981-.258-1.529 0-.071.002-.141.005-.21v.01c.079-.796.238-1.525.471-2.22l-.021.071-1.799 1.05v.05c.261.542.414 1.178.414 1.85 0 .123-.005.245-.015.365l.001-.016c-.053 1.03-.382 1.973-.913 2.77l.013-.02c-.557.884-1.36 1.567-2.314 1.962l-.033.012c-.537.241-1.165.382-1.825.382-.418 0-.824-.056-1.208-.162l.032.007c-.318-.107-.578-.319-.743-.593l-.003-.006c-.233-.338-.38-.751-.403-1.196v-.006c-.011-.101-.017-.218-.017-.337 0-.513.117-.999.326-1.432l-.009.02c.574-.979 1.368-1.772 2.316-2.33l.03-.016c.671-.465 1.442-.916 2.247-1.309l.106-.047.25-.15q-.45-.35-1.65-1.2c-1.069-.716-1.998-1.439-2.874-2.221l.025.022c-.847-.729-1.464-1.703-1.741-2.812l-.008-.038c-.026-.154-.041-.331-.041-.511 0-.564.145-1.094.399-1.555l-.008.017c.56-1.204 1.336-2.219 2.288-3.035l.012-.01c1.03-.973 2.196-1.82 3.462-2.506l.087-.043c1.131-.653 2.452-1.26 3.829-1.747l.17-.052c1.279-.468 2.756-.742 4.296-.747h.002c.07-.002.153-.004.236-.004 1.241 0 2.415.287 3.459.798l-.046-.021c.9.41 1.574 1.182 1.844 2.126l.006.024c.083.322.13.692.13 1.073 0 .632-.131 1.234-.366 1.78l.011-.029c-.428 1.037-1.037 1.92-1.797 2.647l-.003.003c-.77.763-1.693 1.373-2.718 1.78l-.055.019c-1.074.461-2.321.751-3.63.799l-.019.001c-.192.022-.414.034-.639.034-.592 0-1.163-.085-1.703-.244l.043.011c-.483-.154-.9-.393-1.254-.703l.004.003c-.248-.202-.45-.451-.594-.734l-.006-.013q-.15-.4-.025-.475t.175-.025l.25.25c.279.259.612.463.98.593l.02.006c.506.176 1.09.278 1.697.278.195 0 .387-.01.576-.031l-.023.002c1.618-.191 3.077-.743 4.336-1.573l-.037.023c1.064-.633 1.925-1.503 2.531-2.54l.018-.034c.301-.442.481-.988.481-1.576 0-.361-.068-.707-.192-1.025l.007.019c-.374-.591-.979-1.007-1.685-1.122l-.014-.002c-.548-.135-1.178-.213-1.825-.213-.521 0-1.031.05-1.524.146l.05-.008c-1.687.304-3.195.825-4.586 1.541l.091-.043q-6.148 3.1-6.349 6.349v.049c0 .873.343 1.666.902 2.252l-.001-.001c.637.708 1.341 1.333 2.11 1.873l.039.026c.701.524 1.321 1.065 1.898 1.649l.001.002.1.1 3.2-1.749c.365-.528.804-.974 1.308-1.334l.016-.011c.4-.336.908-.555 1.465-.599l.009-.001c.02-.002.043-.002.067-.002.373 0 .693.225.831.547l.002.006c.105.235.166.51.166.799 0 .088-.006.175-.017.261l.001-.01-.097.493.15-.1c.104-.079.235-.126.377-.126.09 0 .175.019.252.053l-.004-.002c.192.05.331.222.331.426 0 .035-.004.069-.012.102l.001-.003-.15.55q-.45 1.799-.599 2.599c-.05.173-.078.372-.078.578 0 .043.001.085.004.127v-.006q.025.3.075.3t.199-.3l.15-.35q.05 0 0 .05l.55-1.15q1.95-4.298 2.099-4.8l.3-.949q.05-.1.4-.199c.237-.064.508-.101.788-.101.023 0 .046 0 .068.001h-.003q.7 0 .7.35l-.05.25c-.112.308-.223.693-.309 1.087l-.011.063c-.02.129-.032.277-.032.429 0 .202.02.399.059.59l-.003-.019.05.199c.102.417.257.783.46 1.117l-.01-.017q.599-.999 1.15-2.049c.29-.483.56-1.043.777-1.629l.023-.07c.075-.377.161-.695.266-1.005l-.016.056q.05-.15.427-.225c.238-.048.511-.075.79-.075h.036-.002q.7 0 .747.35l-.1.199c-.119.336-.223.74-.293 1.155l-.006.045c-.009.097-.015.209-.015.323 0 .239.024.473.069.699l-.004-.023v.199c.115.436.286.819.51 1.166l-.01-.016.15.35c.835-.41 1.817-.65 2.855-.65h.039-.002zm-21.439 7.253c.695-.718 1.124-1.698 1.124-2.778 0-.417-.064-.819-.182-1.197l.008.028-.8.5c-.816.465-1.522.984-2.161 1.574l.008-.007c-.485.446-.843 1.023-1.019 1.674l-.006.025q-.225.925.225 1.2c.183.084.398.133.623.133.246 0 .479-.058.684-.162l-.009.004c.594-.216 1.097-.559 1.497-.998l.003-.003zm6.697-4.604q.25-.65.55-1.55.4-1.2.275-1.399t-.475-.05c-.278.135-.511.32-.697.547l-.003.004c-.208.263-.406.557-.582.866l-.018.034c-.202.331-.373.712-.492 1.116l-.009.034c-.193.523-.305 1.128-.305 1.758 0 .085.002.169.006.253v-.012q.05.999.32 1.075t.625-.725c.229-.413.433-.893.585-1.396l.014-.054q.149-.354.204-.501zm5.546 2.65c.693-.311 1.181-.966 1.249-1.741l.001-.008v-.05l-.55.7-.999 1.1c-.015.012-.025.03-.025.05 0 .02.01.038.024.05q.048.049.3-.1zm4.299-.95c.756-.216 1.3-.901 1.3-1.712 0-.013 0-.026 0-.039v.002c-.01-.2-.046-.388-.105-.566l.004.015c-.389.346-.708.76-.939 1.227l-.011.023q-.451.899-.252 1.048z">
            </path>
        </g>
    </symbol>

    <symbol id="tailwind-icon">
        <g id="SVGRepo_bgCarrier" stroke-width="0"></g>
        <g id="SVGRepo_tracerCarrier" stroke-linecap="round" stroke-linejoin="round"></g>
        <g id="SVGRepo_iconCarrier">
            <path fill-rule="evenodd" clip-rule="evenodd"
                d="M12 6.036c-2.667 0-4.333 1.325-5 3.976 1-1.325 2.167-1.822 3.5-1.491.761.189 1.305.738 1.906 1.345C13.387 10.855 14.522 12 17 12c2.667 0 4.333-1.325 5-3.976-1 1.325-2.166 1.822-3.5 1.491-.761-.189-1.305-.738-1.907-1.345-.98-.99-2.114-2.134-4.593-2.134zM7 12c-2.667 0-4.333 1.325-5 3.976 1-1.326 2.167-1.822 3.5-1.491.761.189 1.305.738 1.907 1.345.98.989 2.115 2.134 4.594 2.134 2.667 0 4.333-1.325 5-3.976-1 1.325-2.167 1.822-3.5 1.491-.761-.189-1.305-.738-1.906-1.345C10.613 13.145 9.478 12 7 12z">
            </path>
        </g>
    </symbol>

    <symbol id="vscode-icon">
        <g id="SVGRepo_bgCarrier" stroke-width="0"></g>
        <g id="SVGRepo_tracerCarrier" stroke-linecap="round" stroke-linejoin="round"></g>
        <g id="SVGRepo_iconCarrier">
            <path
                d="M28,25.6l-5.9,2.4l-9.7-9.6l-6.1,4.8L4,21.9V10.1l2.3-1.2l6.1,4.8L22.1,4L28,6.4V25.6z M15.7,16l6.3,5l0,0V11L15.7,16 L15.7,16z M6.3,19.7L6.3,19.7L10,16l-3.6-3.7l0,0L6.3,19.7L6.3,19.7z">
            </path>
        </g>
    </symbol>

    <symbol id="webpack-icon">
        <g id="SVGRepo_bgCarrier" stroke-width="0"></g>
        <g id="SVGRepo_tracerCarrier" stroke-linecap="round" stroke-linejoin="round"></g>
        <g id="SVGRepo_iconCarrier">
            <path
                d="m20.952 18.5-9.714 5.5v-4.286l6.048-3.334zm.666-.595v-11.52l-3.548 2.071v7.381l3.548 2.048zm-20.952.595 9.714 5.5v-4.286l-6.048-3.334zm-.666-.595v-11.52l3.548 2.071v7.381zm.405-12.262 9.976-5.643v4.143l-6.429 3.548zm20.809 0-9.976-5.643v4.143l6.428 3.548zm-10.833 13.095-5.972-3.287v-6.524l5.976 3.452zm.857 0 5.976-3.286v-6.524l-5.976 3.452zm-6.429-10.548 6-3.31 6 3.31-6 3.453z">
            </path>
        </g>
    </symbol>
</svg>